<svg xmlns="http://www.w3.org/2000/svg" viewBox="0 0 45 45" style="isolation:isolate">
  <defs>
    <clipPath id="a">
      <path d="M0 0h45v45H0z"/>
    </clipPath>
  </defs>
  <g clip-path="url(#a)">
    <path fill="#F1C40F" d="M0 0h45v45H0z"/>
    <path fill="#FFF" fill-rule="evenodd" d="M2.196 9.488H22.7v3.972h-7.817v22.014h-4.834V13.46H2.196V9.488zm38.691 2.444l-1.186 2.283q-.198.395-.459.557-.26.162-.62.162-.359 0-.808-.279-.45-.279-1.061-.62-.611-.341-1.428-.62-.818-.279-1.932-.279-1.006 0-1.752.243t-1.258.674q-.512.431-.764 1.033-.251.602-.251 1.321 0 .917.512 1.528t1.356 1.042q.845.431 1.923.773 1.079.341 2.202.727 1.123.387 2.201.899t1.923 1.294q.845.782 1.357 1.914t.512 2.749q0 1.761-.602 3.298-.602 1.536-1.761 2.677-1.159 1.142-2.831 1.798-1.671.655-3.827.655-1.24 0-2.444-.242-1.204-.243-2.31-.692-1.105-.449-2.066-1.078-.962-.629-1.716-1.402l1.401-2.318q.198-.252.477-.422.278-.171.62-.171.449 0 .97.368.521.369 1.231.818.71.449 1.671.818.962.368 2.309.368 2.067 0 3.199-.979 1.132-.98 1.132-2.813 0-1.024-.512-1.671t-1.357-1.087q-.844-.441-1.922-.746-1.079-.306-2.193-.665-1.114-.359-2.192-.863-1.078-.503-1.923-1.311-.845-.809-1.357-2.022-.512-1.213-.512-2.992 0-1.42.566-2.768.566-1.348 1.653-2.39 1.088-1.042 2.669-1.671t3.612-.629q2.3 0 4.241.719 1.941.719 3.307 2.012z"/>
  </g>
</svg>